<svg xmlns="http://www.w3.org/2000/svg" xmlns:xlink="http://www.w3.org/1999/xlink" preserveAspectRatio="xMidYMid" width="34" height="37" viewBox="0 0 34 37">
  <defs>
    <style>
      .cls-1 {
        fill: #fff;
        fill-rule: evenodd;
      }
    </style>
  </defs>
  <path d="M26.514,37.000 L7.485,37.000 C3.358,37.000 -0.000,33.624 -0.000,29.476 L-0.000,24.000 C-0.000,23.907 0.015,23.814 0.038,23.721 L3.650,10.590 C3.727,10.288 3.942,10.049 4.219,9.918 L4.319,9.872 C4.457,9.810 4.603,9.779 4.749,9.779 L11.267,9.779 C11.843,9.779 12.304,10.242 12.304,10.822 C12.304,11.401 11.843,11.864 11.267,11.864 L5.456,11.864 L2.390,22.995 L10.145,22.995 C10.721,22.995 11.182,23.459 11.182,24.038 L11.182,24.980 C11.182,26.363 12.296,27.483 13.672,27.483 L20.005,27.483 C21.380,27.483 22.495,26.363 22.495,24.980 L22.495,24.038 C22.495,23.459 22.956,22.995 23.532,22.995 L31.602,22.995 L28.551,11.888 L22.741,11.888 C22.164,11.888 21.703,11.424 21.703,10.845 C21.703,10.266 22.164,9.802 22.741,9.802 L29.250,9.802 C29.396,9.802 29.542,9.833 29.681,9.895 L29.781,9.941 C30.057,10.072 30.265,10.312 30.349,10.613 L33.961,23.745 C33.992,23.830 34.000,23.922 34.000,24.023 L34.000,29.476 C34.000,33.624 30.641,37.000 26.514,37.000 ZM31.940,25.081 L24.585,25.081 C24.532,27.560 22.503,29.561 20.020,29.561 L13.688,29.561 C11.205,29.561 9.176,27.560 9.122,25.081 L2.075,25.081 L2.075,29.476 C2.075,32.473 4.503,34.914 7.485,34.914 L26.514,34.914 C29.496,34.914 31.925,32.473 31.925,29.476 L31.940,29.476 L31.940,25.081 ZM23.233,15.201 C23.640,15.611 23.640,16.267 23.233,16.677 L17.730,22.207 C17.530,22.416 17.261,22.516 17.000,22.516 C16.739,22.516 16.470,22.408 16.270,22.207 L10.767,16.677 C10.360,16.267 10.360,15.611 10.767,15.201 C11.167,14.792 11.828,14.792 12.235,15.201 L15.962,18.948 L15.962,1.042 C15.962,0.463 16.423,-0.000 17.000,-0.000 C17.576,-0.000 18.037,0.463 18.037,1.042 L18.037,18.948 L21.765,15.201 C22.172,14.792 22.825,14.792 23.233,15.201 Z" class="cls-1"/>
</svg>
