<svg xmlns="http://www.w3.org/2000/svg" xmlns:xlink="http://www.w3.org/1999/xlink" preserveAspectRatio="xMidYMid" width="16" height="21" viewBox="0 0 16 21">
  <defs>
    <style>
      .cls-1 {
        fill: #ce183e;
        fill-rule: evenodd;
      }
    </style>
  </defs>
  <path d="M8.599,20.351 L7.996,20.998 L7.393,20.351 C6.636,19.538 -0.005,12.287 -0.005,8.077 C-0.005,3.620 3.584,-0.005 7.996,-0.005 C12.408,-0.005 15.996,3.620 15.996,8.077 C15.996,12.287 9.355,19.538 8.599,20.351 ZM7.996,1.668 C4.497,1.668 1.651,4.543 1.651,8.077 C1.651,10.810 5.788,16.048 7.996,18.540 C10.203,16.047 14.340,10.807 14.340,8.077 C14.340,4.543 11.494,1.668 7.996,1.668 ZM7.996,11.419 C6.170,11.419 4.686,9.920 4.686,8.077 C4.686,6.233 6.170,4.733 7.996,4.733 C9.821,4.733 11.305,6.233 11.306,8.077 C11.306,9.920 9.821,11.419 7.996,11.419 Z" class="cls-1"/>
</svg>
