<svg xmlns="http://www.w3.org/2000/svg" xmlns:xlink="http://www.w3.org/1999/xlink" preserveAspectRatio="xMidYMid" width="497.75" height="74.031" viewBox="0 0 497.75 74.031">
  <defs>
    <style>
      .cls-1 {
        fill: #6b7676;
        fill-rule: evenodd;

      }
    </style>
  </defs>
  <path  d="M485.061,47.448 C483.128,52.669 481.196,55.910 475.036,55.910 C474.009,55.910 473.164,55.790 472.318,55.670 L472.318,51.529 C473.043,51.649 474.069,51.769 474.975,51.769 C477.210,51.769 478.780,50.868 479.565,48.588 L481.014,44.327 L468.453,12.939 L474.311,12.939 L480.169,27.763 C482.041,32.564 482.947,35.265 483.672,38.205 L483.853,38.205 C484.336,35.145 485.725,31.484 487.295,26.923 L492.187,12.939 L497.742,12.939 L485.061,47.448 ZM452.094,55.670 L446.840,55.670 L446.840,12.939 L468.279,12.939 L468.279,17.500 L452.094,17.500 L452.094,55.670 ZM430.602,23.562 C437.306,23.562 440.990,28.363 440.990,40.066 C440.990,51.829 437.245,56.570 429.153,56.570 C418.826,56.570 418.102,46.367 418.102,38.325 C418.102,28.843 418.585,17.020 427.402,14.260 C431.146,13.059 435.434,13.539 435.796,11.499 L439.963,11.499 C439.540,18.581 432.293,17.440 428.368,18.701 C424.141,20.081 421.785,23.562 421.242,30.343 L421.363,30.343 C423.114,25.662 426.919,23.562 430.602,23.562 ZM429.515,52.789 C433.743,52.789 435.856,49.248 435.856,39.886 C435.856,30.644 433.924,27.343 429.757,27.343 C425.348,27.343 423.235,30.884 423.235,40.306 C423.235,48.228 424.745,52.789 429.515,52.789 ZM406.817,17.500 L392.142,17.500 L392.142,55.670 L386.889,55.670 L386.889,12.939 L412.071,12.939 L412.071,55.670 L406.817,55.670 L406.817,17.500 ZM368.296,52.309 C373.127,52.309 375.724,48.528 375.966,41.026 L381.220,41.026 C380.918,49.908 377.657,56.570 368.175,56.570 C355.614,56.570 354.588,44.507 354.588,34.905 C354.588,24.942 355.614,12.219 368.357,12.219 C376.449,12.219 380.797,16.840 380.918,25.542 L375.664,25.542 C375.483,20.921 373.912,16.480 368.357,16.480 C359.721,16.480 360.023,28.903 360.023,34.965 C360.023,40.786 359.842,52.309 368.296,52.309 ZM330.987,5.009 L333.014,5.009 L333.014,64.997 L330.987,64.997 L330.987,5.009 ZM306.413,56.862 L296.407,56.862 L296.407,39.856 L306.105,39.856 C309.491,39.856 311.108,42.049 311.108,44.191 C311.108,46.307 309.799,47.735 308.183,48.092 C310.005,48.372 311.441,50.106 311.441,52.247 C311.441,54.720 309.774,56.862 306.413,56.862 ZM305.104,43.553 L300.820,43.553 L300.820,46.383 L305.104,46.383 C306.002,46.383 306.618,45.797 306.618,44.956 C306.618,44.140 306.002,43.553 305.104,43.553 ZM305.258,50.106 L300.820,50.106 L300.820,53.165 L305.258,53.165 C306.310,53.165 306.952,52.553 306.952,51.635 C306.952,50.794 306.336,50.106 305.258,50.106 ZM303.560,24.860 L301.115,24.860 L298.030,31.045 L292.557,31.045 L296.336,24.280 C294.585,23.673 292.612,21.961 292.612,18.758 C292.612,15.334 294.974,12.628 299.086,12.628 L308.367,12.628 L308.367,31.045 L303.560,31.045 L303.560,24.860 ZM303.560,16.770 L299.781,16.770 C298.531,16.770 297.503,17.488 297.503,18.730 C297.503,20.028 298.531,20.718 299.781,20.718 L303.560,20.718 L303.560,16.770 ZM284.907,19.669 L277.099,31.045 L272.487,31.045 L272.487,12.628 L277.266,12.628 L277.266,23.480 L284.768,12.628 L289.713,12.628 L289.713,31.045 L284.907,31.045 L284.907,19.669 ZM269.053,47.811 L276.057,56.862 L270.644,56.862 L266.154,50.463 L264.999,51.890 L264.999,56.862 L260.587,56.862 L260.587,39.856 L264.999,39.856 L264.999,46.842 L270.259,39.856 L275.698,39.856 L269.053,47.811 ZM265.336,31.045 L251.222,31.045 L251.222,12.628 L256.001,12.628 L256.001,26.903 L263.697,26.903 L263.697,12.628 L268.476,12.628 L268.476,26.903 L270.143,26.903 L270.143,34.442 L265.336,34.442 L265.336,31.045 ZM243.238,28.395 L235.931,28.395 L235.014,31.045 L229.596,31.045 L236.570,12.628 L242.572,12.628 L249.573,31.045 L244.155,31.045 L243.238,28.395 ZM239.571,17.322 L237.209,24.253 L241.933,24.253 L239.571,17.322 ZM223.140,19.669 L215.333,31.045 L210.720,31.045 L210.720,12.628 L215.500,12.628 L215.500,23.480 L223.002,12.628 L227.947,12.628 L227.947,31.045 L223.140,31.045 L223.140,19.669 ZM220.145,39.856 L213.500,47.811 L220.504,56.862 L215.091,56.862 L210.601,50.463 L209.447,51.890 L209.447,56.862 L205.034,56.862 L205.034,39.856 L209.447,39.856 L209.447,46.842 L214.706,39.856 L220.145,39.856 ZM203.570,31.045 L189.455,31.045 L189.455,12.628 L194.234,12.628 L194.234,26.903 L201.931,26.903 L201.931,12.628 L206.710,12.628 L206.710,26.903 L208.377,26.903 L208.377,34.442 L203.570,34.442 L203.570,31.045 ZM176.859,31.377 C171.191,31.377 166.940,27.456 166.940,21.850 C166.940,16.245 171.191,12.324 176.859,12.324 C182.527,12.324 186.751,16.245 186.751,21.850 C186.751,27.456 182.527,31.377 176.859,31.377 ZM176.859,16.521 C173.775,16.521 171.802,18.841 171.802,21.850 C171.802,24.833 173.775,27.180 176.859,27.180 C179.915,27.180 181.888,24.833 181.888,21.850 C181.888,18.841 179.915,16.521 176.859,16.521 ZM157.456,27.180 C159.235,27.180 160.819,25.965 161.430,24.501 L165.542,26.434 C164.347,28.809 161.930,31.377 157.456,31.377 C151.761,31.377 147.426,27.511 147.426,21.850 C147.426,16.162 151.761,12.324 157.456,12.324 C161.930,12.324 164.319,14.837 165.542,17.267 L161.430,19.200 C160.819,17.736 159.235,16.521 157.456,16.521 C154.428,16.521 152.288,18.841 152.288,21.850 C152.288,24.860 154.428,27.180 157.456,27.180 ZM137.943,27.180 C139.721,27.180 141.305,25.965 141.916,24.501 L146.028,26.434 C144.833,28.809 142.416,31.377 137.943,31.377 C132.247,31.377 127.912,27.511 127.912,21.850 C127.912,16.162 132.247,12.324 137.943,12.324 C142.416,12.324 144.806,14.837 146.028,17.267 L141.916,19.200 C141.305,17.736 139.721,16.521 137.943,16.521 C134.914,16.521 132.775,18.841 132.775,21.850 C132.775,24.860 134.914,27.180 137.943,27.180 ZM122.680,31.045 L121.763,28.395 L114.456,28.395 L113.539,31.045 L108.121,31.045 L115.095,12.628 L121.097,12.628 L128.098,31.045 L122.680,31.045 ZM118.096,17.322 L115.734,24.253 L120.457,24.253 L118.096,17.322 ZM85.977,5.009 L88.004,5.009 L88.004,64.997 L85.977,64.997 L85.977,5.009 ZM61.018,38.832 C60.120,39.174 59.119,39.395 58.199,39.585 C57.271,39.787 56.341,39.968 55.402,40.126 C54.549,40.266 53.720,40.391 52.826,40.482 C53.376,40.547 53.930,40.610 54.482,40.665 C55.349,40.749 56.218,40.821 57.086,40.877 C57.302,40.893 57.516,40.900 57.740,40.909 L58.362,40.919 L59.623,40.895 C60.468,40.886 61.337,40.827 62.176,40.781 L62.204,40.780 C62.607,40.758 62.952,41.067 62.973,41.469 C62.991,41.801 62.782,42.094 62.481,42.198 C61.589,42.503 60.708,42.685 59.795,42.834 C59.339,42.901 58.878,42.943 58.413,42.962 C58.181,42.974 57.947,42.979 57.713,42.982 L57.042,42.991 C56.146,43.011 55.251,43.015 54.355,43.004 C53.734,42.997 53.118,42.980 52.496,42.958 L52.556,43.141 C53.590,43.465 54.629,43.780 55.668,44.071 C56.472,44.297 57.234,44.447 58.027,44.610 C58.812,44.786 59.627,44.927 60.416,45.090 L60.438,45.095 C60.834,45.176 61.088,45.563 61.007,45.957 C60.940,46.281 60.668,46.509 60.354,46.538 C59.474,46.616 58.625,46.592 57.755,46.538 C56.890,46.479 56.016,46.286 55.192,46.132 C54.361,45.979 53.537,45.816 52.714,45.644 L52.653,45.918 C52.995,46.113 53.335,46.314 53.678,46.503 C54.363,46.883 55.049,47.190 55.740,47.536 C56.425,47.890 57.134,48.227 57.817,48.596 L57.830,48.603 C58.186,48.795 58.318,49.239 58.125,49.595 C57.969,49.882 57.648,50.023 57.343,49.965 C56.534,49.811 55.768,49.582 54.993,49.334 C54.222,49.078 53.474,48.720 52.742,48.401 C52.548,48.315 52.357,48.226 52.164,48.140 L51.999,48.889 C52.001,48.891 52.003,48.893 52.005,48.894 L52.851,49.626 C53.408,50.122 53.929,50.666 54.422,51.243 C54.687,51.554 54.651,52.021 54.341,52.285 C54.106,52.485 53.780,52.513 53.521,52.379 C52.844,52.028 52.201,51.643 51.592,51.206 L51.517,51.149 L49.490,60.424 C48.608,60.410 47.799,60.408 46.990,60.395 C47.627,59.584 47.398,58.737 48.429,58.737 L48.422,58.737 C48.422,58.737 48.384,58.708 48.403,58.706 L49.008,54.885 L51.439,40.139 C51.293,40.194 51.151,40.242 51.008,40.290 C50.910,40.323 50.813,40.365 50.718,40.393 C50.664,40.410 50.625,40.419 50.571,40.434 C49.813,40.648 49.146,40.745 48.504,40.743 C47.371,40.734 46.439,40.441 45.400,40.044 C44.584,39.729 43.985,39.352 42.939,38.996 C42.939,38.997 42.939,38.998 42.939,38.998 C42.939,38.998 42.791,38.997 42.789,38.996 C42.791,39.004 42.708,39.012 42.709,39.020 C42.690,39.013 42.672,39.006 42.652,38.998 C42.650,38.998 42.649,38.997 42.647,38.996 C42.762,39.533 42.858,40.082 42.931,40.643 C43.014,41.310 43.068,41.991 43.068,42.684 C43.068,50.037 38.754,56.082 32.999,56.667 L32.999,58.395 C32.999,58.336 33.125,58.274 33.199,58.212 C34.308,57.278 36.467,56.008 39.068,55.899 C39.293,55.890 39.503,55.888 39.705,55.891 C39.715,55.892 39.725,55.892 39.736,55.892 C39.902,55.895 40.059,55.903 40.217,55.915 C40.237,55.916 40.255,55.917 40.276,55.919 C40.282,55.923 40.279,55.929 40.286,55.932 C40.830,56.136 41.061,56.635 40.970,57.136 C40.924,57.392 40.708,57.637 40.463,57.883 C40.097,58.223 39.731,58.563 39.795,58.925 C39.805,58.978 39.800,59.015 39.800,59.046 C39.800,59.046 39.800,59.046 39.800,59.047 C40.323,58.269 41.244,58.211 41.807,57.366 C41.843,57.281 41.929,57.197 41.957,57.114 C42.091,56.715 42.150,56.319 42.139,55.881 C42.131,55.440 42.030,54.968 41.914,54.420 C41.899,54.359 41.938,54.297 41.999,54.283 C42.028,54.277 42.060,54.282 42.083,54.295 C42.579,54.594 42.967,55.073 43.179,55.658 C43.387,56.228 43.381,56.892 43.193,57.475 C43.286,57.478 43.374,57.484 43.457,57.487 C43.705,57.497 43.905,57.485 44.021,57.335 C44.126,56.963 44.170,56.589 44.147,56.183 C44.122,55.719 43.991,55.224 43.838,54.659 C43.821,54.598 43.856,54.534 43.917,54.517 C43.948,54.507 43.981,54.513 44.007,54.528 C44.530,54.831 44.949,55.323 45.183,55.934 C45.419,56.544 45.416,57.269 45.204,57.891 C45.198,57.910 45.189,57.927 45.182,57.946 C45.185,57.994 45.189,58.042 45.192,58.092 C45.195,58.095 45.199,58.097 45.203,58.099 C45.297,58.269 45.561,58.443 45.682,58.700 C45.854,58.397 45.988,58.092 46.070,57.779 C46.183,57.348 46.210,56.904 46.166,56.419 C46.126,55.932 45.999,55.418 45.877,54.837 C45.864,54.776 45.902,54.715 45.964,54.700 C45.996,54.694 46.029,54.701 46.054,54.718 C46.560,55.059 46.953,55.554 47.197,56.151 C47.441,56.743 47.493,57.453 47.320,58.106 C47.210,58.526 47.014,58.911 46.771,59.250 C46.767,59.266 46.769,59.279 46.761,59.296 C46.331,60.177 45.032,61.017 43.978,61.143 C43.626,61.185 43.230,61.172 42.827,61.119 C42.036,61.016 41.218,60.751 40.637,60.388 C37.812,60.523 35.651,60.928 34.003,61.971 C33.996,61.976 33.989,61.980 33.982,61.985 C33.937,62.013 33.897,62.047 33.853,62.076 C33.090,62.676 32.783,63.918 33.405,64.801 C33.619,65.021 33.842,65.234 34.062,65.437 C34.816,66.086 35.634,66.638 36.493,67.051 C37.351,67.469 38.249,67.729 39.158,67.861 C40.071,68.027 40.982,68.148 42.173,68.429 L42.180,68.431 C42.335,68.468 42.431,68.622 42.394,68.777 C42.383,68.827 42.358,68.871 42.325,68.907 C41.451,69.850 40.158,70.223 38.912,70.154 C37.660,70.057 36.458,69.613 35.422,68.979 C34.383,68.338 33.491,67.504 32.817,66.521 C32.795,66.490 32.775,66.458 32.754,66.425 C32.760,66.445 32.764,66.464 32.769,66.484 C32.922,67.015 33.098,67.547 33.260,68.078 C33.450,68.360 33.639,68.623 33.835,68.875 C34.219,69.369 34.622,69.799 35.056,70.154 C35.491,70.509 35.954,70.793 36.500,71.014 C37.046,71.240 37.675,71.387 38.413,71.545 L38.420,71.547 C38.567,71.579 38.660,71.723 38.629,71.870 C38.614,71.939 38.573,71.997 38.520,72.034 C37.863,72.500 37.032,72.718 36.172,72.667 C35.312,72.615 34.448,72.260 33.779,71.705 C33.662,71.609 33.558,71.502 33.452,71.395 C33.262,71.773 33.037,72.152 32.890,72.529 C32.699,72.977 32.499,73.425 32.253,73.873 C32.176,74.011 32.002,74.061 31.864,73.985 C31.815,73.958 31.777,73.917 31.751,73.873 C31.505,73.425 31.305,72.977 31.114,72.529 C30.967,72.152 30.742,71.773 30.552,71.395 C30.446,71.502 30.342,71.609 30.225,71.705 C29.556,72.260 28.691,72.615 27.832,72.667 C26.972,72.718 26.141,72.500 25.484,72.034 C25.361,71.948 25.332,71.778 25.419,71.656 C25.460,71.599 25.520,71.561 25.583,71.547 L25.590,71.546 C26.329,71.388 26.958,71.240 27.504,71.014 C28.051,70.793 28.513,70.509 28.948,70.154 C29.381,69.799 29.785,69.369 30.168,68.875 C30.365,68.623 30.554,68.360 30.744,68.078 C30.905,67.547 31.082,67.016 31.234,66.484 C31.240,66.464 31.244,66.445 31.250,66.425 C31.228,66.457 31.209,66.490 31.187,66.521 C30.513,67.504 29.621,68.338 28.582,68.979 C27.546,69.613 26.343,70.057 25.092,70.154 C23.846,70.224 22.553,69.850 21.679,68.907 C21.571,68.791 21.578,68.609 21.694,68.501 C21.732,68.466 21.776,68.444 21.822,68.432 L21.831,68.430 C23.022,68.148 23.933,68.028 24.846,67.861 C25.755,67.729 26.653,67.469 27.511,67.051 C28.370,66.638 29.188,66.087 29.942,65.437 C30.162,65.234 30.385,65.022 30.599,64.803 C31.221,63.918 30.914,62.676 30.151,62.076 C30.107,62.047 30.067,62.013 30.022,61.985 C30.015,61.980 30.008,61.976 30.001,61.971 C28.353,60.928 26.192,60.523 23.367,60.388 C22.786,60.751 21.968,61.016 21.177,61.119 C21.172,61.120 21.167,61.120 21.162,61.120 C20.964,61.146 20.768,61.162 20.578,61.166 C20.387,61.170 20.203,61.163 20.026,61.143 C18.972,61.017 17.672,60.177 17.243,59.296 C17.234,59.279 17.236,59.265 17.233,59.250 C16.990,58.910 16.794,58.526 16.684,58.105 C16.510,57.453 16.562,56.742 16.807,56.150 C17.050,55.554 17.444,55.059 17.950,54.718 C18.003,54.682 18.074,54.695 18.110,54.748 C18.128,54.774 18.132,54.808 18.127,54.837 C18.006,55.418 17.878,55.931 17.838,56.419 C17.794,56.904 17.821,57.348 17.934,57.779 C18.015,58.091 18.150,58.397 18.321,58.700 C18.443,58.443 18.707,58.269 18.801,58.099 C18.805,58.097 18.808,58.095 18.812,58.092 C18.816,58.042 18.819,57.994 18.822,57.946 C18.815,57.927 18.806,57.910 18.800,57.891 C18.588,57.269 18.585,56.544 18.821,55.934 C19.055,55.322 19.474,54.831 19.997,54.528 C20.052,54.496 20.122,54.515 20.154,54.569 C20.170,54.596 20.173,54.630 20.166,54.659 C20.013,55.224 19.882,55.719 19.858,56.183 C19.834,56.589 19.878,56.963 19.983,57.335 C20.137,57.535 20.441,57.489 20.810,57.475 C20.622,56.892 20.614,56.228 20.823,55.658 C21.035,55.073 21.422,54.594 21.917,54.295 C21.972,54.262 22.043,54.279 22.077,54.335 C22.092,54.361 22.096,54.392 22.090,54.420 C21.974,54.968 21.873,55.440 21.865,55.881 C21.854,56.320 21.913,56.715 22.046,57.113 C22.075,57.197 22.107,57.281 22.142,57.366 C22.706,58.211 23.813,58.269 24.097,59.047 C24.097,59.046 24.098,59.045 24.098,59.044 C24.124,59.013 24.143,58.978 24.153,58.925 C24.263,58.301 23.118,57.746 23.009,57.136 C22.919,56.635 23.144,56.136 23.688,55.932 C23.696,55.929 23.672,55.923 23.677,55.919 C23.964,55.896 24.242,55.886 24.556,55.891 C24.659,55.892 24.763,55.894 24.879,55.899 C27.653,56.016 29.860,57.451 30.907,58.395 L30.907,56.667 C25.152,56.082 20.873,50.037 20.873,42.684 C20.873,42.109 20.929,41.542 21.000,40.985 C21.086,40.306 21.209,39.642 21.347,38.996 C21.340,38.998 21.334,39.001 21.328,39.003 C20.071,39.476 18.995,39.986 17.912,40.332 C17.148,40.575 16.381,40.739 15.542,40.743 C14.622,40.749 13.616,40.566 12.436,40.101 C12.425,40.097 12.414,40.094 12.402,40.088 L14.708,53.815 L15.525,58.679 C15.544,58.681 15.472,58.682 15.472,58.685 L15.472,58.685 C16.502,58.693 16.326,59.558 16.962,60.369 C16.153,60.382 15.424,60.397 14.543,60.411 L12.501,51.141 L12.419,51.202 C11.810,51.639 11.163,52.026 10.487,52.378 C10.124,52.565 9.678,52.425 9.490,52.063 C9.347,51.789 9.394,51.466 9.583,51.243 C10.076,50.666 10.596,50.122 11.153,49.626 L11.999,48.894 C12.001,48.893 12.003,48.891 12.005,48.889 L11.840,48.140 C11.646,48.226 11.456,48.315 11.262,48.401 C10.530,48.720 9.782,49.078 9.012,49.334 C8.236,49.582 7.469,49.811 6.661,49.965 C6.263,50.041 5.879,49.781 5.803,49.384 C5.742,49.063 5.901,48.751 6.173,48.603 L6.187,48.595 C6.869,48.227 7.579,47.890 8.264,47.536 C8.955,47.190 9.641,46.883 10.327,46.503 C10.668,46.314 11.009,46.113 11.350,45.918 L11.290,45.644 C10.467,45.816 9.643,45.979 8.811,46.132 C7.988,46.286 7.114,46.479 6.249,46.538 C5.379,46.592 4.530,46.616 3.649,46.538 C3.247,46.503 2.949,46.147 2.985,45.745 C3.014,45.417 3.257,45.158 3.565,45.095 L3.589,45.090 C4.377,44.927 5.192,44.787 5.977,44.610 C6.770,44.447 7.533,44.297 8.336,44.071 C9.375,43.780 10.413,43.465 11.447,43.141 L11.508,42.958 C10.886,42.980 10.269,42.997 9.649,43.004 C8.753,43.015 7.858,43.011 6.962,42.991 L6.291,42.982 C6.057,42.979 5.823,42.974 5.591,42.962 C5.126,42.943 4.665,42.901 4.209,42.834 C3.296,42.686 2.414,42.503 1.523,42.199 C1.142,42.067 0.938,41.653 1.069,41.272 C1.177,40.956 1.481,40.763 1.799,40.780 L1.828,40.782 C2.666,40.827 3.536,40.887 4.380,40.895 L5.642,40.919 L6.265,40.909 C6.488,40.900 6.701,40.893 6.918,40.877 C7.786,40.821 8.655,40.749 9.521,40.665 C10.073,40.610 10.628,40.547 11.177,40.482 C10.284,40.391 9.455,40.266 8.602,40.126 C7.663,39.968 6.733,39.787 5.804,39.585 C4.885,39.395 3.884,39.174 2.985,38.832 C2.073,38.478 1.204,38.093 0.353,37.569 C0.010,37.358 -0.097,36.909 0.115,36.566 C0.292,36.280 0.635,36.158 0.944,36.250 L0.975,36.260 C1.817,36.510 2.698,36.773 3.563,36.973 C3.995,37.079 4.427,37.182 4.856,37.277 C5.287,37.368 5.710,37.441 6.175,37.502 C7.080,37.623 7.992,37.725 8.899,37.803 C9.500,37.853 10.117,37.894 10.715,37.920 C10.618,37.895 10.523,37.870 10.422,37.842 C10.169,37.773 9.921,37.701 9.675,37.623 C9.184,37.471 8.703,37.306 8.227,37.132 C7.274,36.784 6.349,36.407 5.426,36.002 C4.504,35.608 3.536,35.160 2.681,34.608 C1.820,34.041 1.011,33.449 0.254,32.712 C-0.034,32.432 -0.039,31.971 0.242,31.683 C0.479,31.440 0.846,31.398 1.128,31.561 L1.158,31.579 C1.955,32.038 2.800,32.512 3.643,32.915 C4.494,33.331 5.303,33.728 6.212,34.038 C7.114,34.353 8.033,34.647 8.948,34.903 C9.406,35.030 9.864,35.149 10.320,35.253 L10.685,35.330 C10.438,35.225 10.199,35.117 9.966,35.004 C9.469,34.763 8.992,34.505 8.525,34.238 C7.594,33.702 6.703,33.129 5.832,32.533 C4.939,31.933 4.050,31.279 3.275,30.533 C2.501,29.771 1.789,28.994 1.163,28.072 C0.938,27.740 1.025,27.287 1.358,27.062 C1.642,26.870 2.014,26.905 2.257,27.126 L2.284,27.151 C2.998,27.800 3.768,28.469 4.552,29.062 C5.338,29.666 6.106,30.255 6.966,30.747 C7.841,31.255 8.727,31.737 9.622,32.166 C10.052,32.372 10.484,32.566 10.915,32.738 C10.848,32.692 10.779,32.647 10.714,32.601 C10.228,32.259 9.779,31.900 9.345,31.532 C8.479,30.797 7.672,30.020 6.899,29.232 C6.090,28.409 5.332,27.561 4.688,26.625 C4.054,25.678 3.486,24.726 3.042,23.642 C2.890,23.271 3.068,22.846 3.440,22.694 C3.760,22.563 4.119,22.677 4.311,22.947 L4.332,22.979 C4.917,23.807 5.562,24.663 6.239,25.446 C6.914,26.236 7.594,27.022 8.357,27.698 C9.128,28.380 9.909,29.029 10.711,29.625 C10.622,29.508 10.529,29.391 10.442,29.273 C9.733,28.302 9.113,27.307 8.523,26.298 C7.905,25.265 7.357,24.198 6.949,23.079 C6.544,21.953 6.218,20.834 6.046,19.615 C5.990,19.219 6.267,18.851 6.664,18.795 C7.013,18.747 7.338,18.953 7.451,19.271 L7.464,19.308 C7.820,20.309 8.249,21.353 8.727,22.330 C9.206,23.314 9.704,24.284 10.298,25.186 C10.711,25.792 11.143,26.380 11.584,26.953 C12.945,28.467 15.238,29.982 16.479,30.584 C17.950,31.298 19.754,32.227 19.740,33.722 C19.732,34.608 18.839,35.474 18.234,35.566 C17.629,35.660 17.335,35.443 17.335,35.443 C17.335,35.443 17.536,34.915 17.195,34.730 C16.853,34.544 16.430,35.028 16.306,35.554 C16.182,36.081 16.671,36.670 17.276,36.825 C17.804,36.961 18.825,36.634 19.417,36.353 C19.426,36.348 19.436,36.343 19.445,36.338 C19.520,36.302 19.589,36.267 19.646,36.234 C19.662,36.225 19.673,36.221 19.687,36.215 C20.608,35.719 21.704,34.964 22.923,33.842 C22.923,33.842 24.529,32.133 25.350,30.049 C24.699,30.153 24.015,30.010 24.014,30.010 C24.394,29.581 25.082,28.764 25.366,28.163 C25.632,27.598 25.863,25.955 25.510,25.415 C25.093,24.777 24.459,24.308 23.837,23.982 C23.081,23.585 22.341,23.045 21.579,22.538 C21.577,22.537 21.577,22.536 21.575,22.534 C20.785,21.842 22.004,21.996 22.450,22.001 C22.897,22.005 23.101,21.993 23.436,21.539 C23.735,21.133 23.419,20.709 23.087,20.447 C22.828,20.245 22.272,20.116 21.808,20.143 C21.834,20.220 21.856,20.299 21.869,20.384 C21.959,20.955 21.680,21.473 21.249,21.539 C20.817,21.606 20.396,21.196 20.308,20.624 C20.305,20.604 20.305,20.586 20.303,20.566 C20.142,20.674 20.007,20.812 19.939,20.998 C19.766,21.464 19.793,21.507 19.378,21.347 C19.351,21.337 19.326,21.335 19.300,21.327 C18.882,21.175 18.716,21.139 18.530,20.852 C18.377,20.531 18.249,20.322 18.297,20.008 C18.345,19.695 18.597,19.340 18.957,19.105 C19.115,19.001 19.389,18.901 19.710,18.813 L19.722,18.542 C19.722,18.542 19.718,18.538 19.717,18.536 C19.735,18.539 19.748,18.541 19.767,18.543 C20.687,18.676 21.697,18.322 22.186,18.366 C22.674,18.411 22.768,18.667 23.079,18.692 C23.391,18.695 23.508,18.449 23.999,18.448 C24.489,18.447 25.463,18.890 26.390,18.840 C26.410,18.839 26.422,18.839 26.440,18.838 C26.439,18.839 26.435,18.842 26.435,18.842 L26.421,19.173 C26.796,19.386 27.210,19.734 27.633,20.184 L27.637,20.180 C27.670,20.220 27.705,20.259 27.738,20.299 C27.841,20.412 27.945,20.530 28.048,20.654 C29.539,22.307 31.213,23.424 31.213,23.424 C31.213,23.424 30.731,23.678 30.092,23.898 C30.113,23.941 30.133,23.983 30.154,24.026 C31.298,26.382 32.002,28.612 32.002,28.612 C32.002,28.612 32.706,26.382 33.850,24.026 C33.871,23.983 33.891,23.941 33.912,23.898 C33.273,23.678 32.791,23.424 32.791,23.424 C32.791,23.424 34.465,22.307 35.956,20.654 C36.059,20.530 36.163,20.412 36.266,20.299 C36.299,20.259 36.334,20.220 36.367,20.180 L36.371,20.184 C36.795,19.734 37.208,19.386 37.583,19.173 L37.569,18.842 C37.569,18.842 37.565,18.839 37.564,18.838 C37.582,18.839 37.595,18.839 37.613,18.840 C38.541,18.890 39.514,18.447 40.005,18.448 C40.496,18.449 40.612,18.695 40.926,18.692 C41.236,18.667 41.330,18.411 41.818,18.366 C42.307,18.322 43.316,18.676 44.237,18.543 C44.256,18.541 44.268,18.539 44.287,18.536 C44.286,18.538 44.282,18.542 44.282,18.542 L44.294,18.813 C44.615,18.901 44.889,19.001 45.047,19.105 C45.406,19.340 45.659,19.695 45.707,20.008 C45.755,20.322 45.627,20.531 45.474,20.852 C45.288,21.139 45.122,21.175 44.704,21.327 C44.677,21.335 44.653,21.337 44.626,21.347 C44.211,21.507 44.238,21.464 44.065,20.998 C43.996,20.812 43.862,20.674 43.701,20.566 C43.699,20.586 43.699,20.604 43.696,20.624 C43.608,21.196 43.187,21.606 42.754,21.539 C42.324,21.473 42.045,20.955 42.135,20.384 C42.148,20.299 42.170,20.220 42.197,20.143 C41.731,20.116 41.176,20.245 40.917,20.447 C40.585,20.709 40.269,21.133 40.568,21.539 C40.903,21.993 41.107,22.005 41.553,22.001 C42.000,21.996 43.219,21.842 42.429,22.534 C42.427,22.536 42.427,22.537 42.425,22.538 C41.662,23.045 40.922,23.585 40.167,23.982 C39.545,24.308 38.912,24.777 38.494,25.415 C38.141,25.955 38.372,27.598 38.638,28.163 C38.922,28.764 39.610,29.581 39.990,30.010 C39.989,30.010 39.306,30.153 38.654,30.049 C39.475,32.133 41.081,33.842 41.081,33.842 C42.300,34.964 43.396,35.719 44.317,36.215 C44.331,36.221 44.342,36.225 44.358,36.234 C44.415,36.267 44.484,36.302 44.558,36.338 C44.568,36.343 44.577,36.348 44.587,36.353 C45.179,36.634 46.200,36.961 46.728,36.825 C47.333,36.670 47.822,36.081 47.698,35.554 C47.574,35.028 47.151,34.544 46.809,34.730 C46.468,34.915 46.669,35.443 46.669,35.443 C46.669,35.443 46.375,35.660 45.770,35.566 C45.164,35.474 44.272,34.608 44.264,33.722 C44.250,32.227 46.054,31.298 47.525,30.584 C48.765,29.982 51.059,28.467 52.420,26.953 C52.861,26.380 53.292,25.792 53.706,25.186 C54.300,24.283 54.798,23.314 55.277,22.330 C55.755,21.353 56.184,20.309 56.540,19.308 L56.552,19.272 C56.687,18.894 57.103,18.696 57.481,18.830 C57.813,18.948 58.006,19.281 57.958,19.615 C57.786,20.834 57.460,21.953 57.056,23.079 C56.646,24.198 56.099,25.265 55.481,26.298 C54.891,27.307 54.271,28.301 53.562,29.273 C53.475,29.391 53.382,29.507 53.292,29.625 C54.096,29.029 54.877,28.380 55.647,27.698 C56.411,27.022 57.091,26.236 57.765,25.446 C58.442,24.663 59.087,23.807 59.671,22.978 L59.693,22.948 C59.925,22.620 60.379,22.541 60.708,22.772 C60.990,22.971 61.088,23.335 60.962,23.642 C60.518,24.725 59.950,25.678 59.316,26.625 C58.673,27.561 57.914,28.409 57.105,29.232 C56.332,30.020 55.525,30.797 54.659,31.532 C54.225,31.900 53.776,32.259 53.290,32.601 C53.224,32.647 53.155,32.693 53.089,32.738 C53.519,32.566 53.951,32.373 54.382,32.166 C55.277,31.737 56.163,31.255 57.037,30.747 C57.898,30.255 58.665,29.666 59.452,29.062 C60.236,28.469 61.006,27.800 61.720,27.151 L61.747,27.127 C62.044,26.856 62.505,26.878 62.776,27.175 C63.007,27.428 63.025,27.800 62.841,28.072 C62.215,28.994 61.503,29.772 60.729,30.533 C59.954,31.279 59.065,31.933 58.172,32.533 C57.301,33.129 56.410,33.702 55.478,34.238 C55.012,34.505 54.535,34.763 54.038,35.005 C53.805,35.117 53.566,35.226 53.319,35.330 L53.683,35.253 C54.139,35.149 54.598,35.030 55.055,34.903 C55.970,34.647 56.890,34.353 57.792,34.038 C58.701,33.728 59.510,33.331 60.361,32.915 C61.204,32.511 62.048,32.038 62.846,31.579 L62.876,31.561 C63.224,31.360 63.670,31.479 63.872,31.827 C64.042,32.122 63.983,32.485 63.750,32.712 C62.993,33.449 62.184,34.041 61.323,34.608 C60.468,35.160 59.500,35.608 58.577,36.002 C57.654,36.407 56.730,36.784 55.777,37.132 C55.301,37.306 54.820,37.471 54.329,37.624 C54.083,37.701 53.835,37.773 53.582,37.843 C53.482,37.870 53.387,37.895 53.291,37.920 C53.888,37.894 54.504,37.853 55.105,37.803 C56.012,37.725 56.923,37.623 57.829,37.502 C58.294,37.441 58.717,37.368 59.147,37.277 C59.577,37.182 60.008,37.079 60.441,36.973 C61.306,36.773 62.187,36.510 63.028,36.260 L63.059,36.250 C63.446,36.136 63.852,36.355 63.967,36.740 C64.063,37.063 63.925,37.400 63.651,37.569 C62.799,38.093 61.931,38.478 61.018,38.832 ZM38.292,49.506 C38.646,48.577 38.934,47.501 39.116,46.338 C39.161,46.050 39.196,45.765 39.226,45.484 C38.913,45.772 38.540,45.924 38.164,45.865 L38.759,44.094 C38.165,44.706 37.606,45.347 37.064,46.003 C37.063,46.176 37.052,46.348 37.033,46.520 C37.017,46.647 36.992,46.771 36.964,46.896 C37.156,47.330 37.354,47.761 37.565,48.187 C37.792,48.632 38.031,49.073 38.292,49.506 ZM36.497,39.231 C35.946,39.560 35.404,40.225 34.931,41.132 C35.050,41.112 35.170,41.102 35.292,41.122 C36.111,41.249 36.628,42.292 36.448,43.450 L35.412,42.672 C35.616,43.391 35.855,44.096 36.116,44.793 C36.194,44.680 36.280,44.567 36.384,44.459 C36.473,44.366 36.618,44.364 36.710,44.452 C36.731,44.470 36.746,44.494 36.760,44.517 C36.826,44.653 36.873,44.786 36.913,44.917 C37.374,44.333 37.816,43.734 38.230,43.112 L37.008,43.537 C37.188,42.379 38.000,41.544 38.818,41.672 C38.940,41.691 39.052,41.735 39.159,41.792 C39.132,41.635 39.103,41.480 39.069,41.333 C38.850,41.132 38.669,40.848 38.574,40.504 C38.513,40.285 38.496,40.070 38.511,39.868 C38.428,39.731 38.341,39.607 38.248,39.502 C38.214,39.699 38.166,39.894 38.102,40.086 C38.029,40.289 37.942,40.490 37.828,40.686 C37.717,40.883 37.581,41.076 37.391,41.261 C37.238,41.410 36.993,41.407 36.842,41.254 C36.816,41.226 36.793,41.196 36.777,41.165 C36.654,40.931 36.582,40.706 36.538,40.484 C36.487,40.263 36.466,40.046 36.460,39.830 C36.458,39.629 36.469,39.429 36.497,39.231 ZM33.740,44.630 C33.682,44.907 33.629,45.187 33.584,45.476 C33.403,46.633 33.348,47.741 33.400,48.731 C33.778,48.401 34.144,48.060 34.495,47.706 C34.826,47.365 35.146,47.015 35.462,46.661 C35.473,46.535 35.487,46.408 35.511,46.283 C35.545,46.115 35.587,45.947 35.639,45.781 C35.324,44.991 34.988,44.209 34.608,43.446 L34.635,45.316 C34.258,45.257 33.950,44.999 33.740,44.630 ZM39.142,40.345 C39.234,40.677 39.503,40.891 39.744,40.824 C39.984,40.758 40.104,40.436 40.012,40.107 C39.923,39.776 39.652,39.562 39.412,39.629 C39.172,39.696 39.051,40.016 39.142,40.345 ZM37.294,51.155 C37.216,51.043 37.166,50.914 37.149,50.788 C37.035,50.020 36.841,49.285 36.628,48.557 C36.576,48.389 36.520,48.223 36.467,48.056 C36.394,48.157 36.314,48.257 36.217,48.355 C36.098,48.475 35.905,48.475 35.785,48.356 C35.762,48.333 35.742,48.305 35.728,48.279 C35.665,48.156 35.621,48.035 35.582,47.917 C35.480,48.061 35.375,48.201 35.275,48.346 C34.849,48.975 34.441,49.617 34.098,50.312 C34.008,50.494 33.862,50.628 33.691,50.709 C34.007,51.904 34.552,52.695 35.270,52.808 C35.987,52.919 36.746,52.333 37.413,51.291 C37.370,51.251 37.329,51.206 37.294,51.155 ZM35.874,54.079 C35.605,54.139 35.334,54.154 35.066,54.113 C34.500,54.025 33.999,53.709 33.575,53.214 C33.298,53.540 33.104,53.760 33.104,53.760 C33.104,53.760 32.912,54.561 32.556,55.153 C33.732,55.062 34.851,54.687 35.874,54.079 ZM31.935,52.772 C32.249,52.864 32.035,51.763 31.943,50.821 C31.768,49.027 31.955,47.487 32.139,46.445 C32.171,46.059 32.213,45.669 32.275,45.272 C32.619,43.076 33.360,41.153 34.289,39.790 C34.233,39.141 34.218,38.569 34.454,38.577 C34.538,38.580 34.779,38.732 35.022,38.872 C35.234,38.649 35.452,38.456 35.674,38.291 C35.047,37.508 33.758,36.346 32.855,36.319 C31.728,36.286 31.626,36.401 31.165,37.133 C30.893,37.566 30.640,38.375 30.551,38.640 C30.462,38.906 30.562,39.425 31.579,39.466 C32.908,39.521 33.505,38.750 33.540,39.466 C33.552,39.759 33.380,40.265 32.874,40.363 C32.452,40.445 31.658,40.363 31.621,40.665 C31.588,40.937 31.801,41.309 31.943,41.319 C32.436,41.354 32.475,41.917 32.270,41.949 C31.634,42.051 30.866,42.212 29.964,42.513 C29.587,42.640 27.124,43.418 26.934,44.125 C26.908,44.223 27.015,44.397 27.183,44.608 C27.644,45.039 28.469,45.537 29.354,45.741 C29.941,45.878 30.964,45.702 30.873,45.983 C30.689,46.543 29.897,46.668 29.536,46.995 C29.180,47.317 28.821,48.352 28.797,48.681 C28.822,49.347 28.870,49.981 29.003,50.313 C29.320,51.103 31.619,52.681 31.935,52.772 ZM30.261,40.239 C30.210,40.112 30.126,39.820 30.034,39.478 L28.476,42.220 C29.441,41.831 30.277,41.512 30.341,41.464 C30.595,41.271 30.664,41.037 30.653,40.927 C30.645,40.817 30.414,40.619 30.261,40.239 ZM31.216,55.129 C31.050,54.507 31.099,53.660 31.099,53.660 C31.099,53.660 30.418,53.204 29.947,52.871 C29.506,52.559 28.871,52.074 28.871,52.074 C28.871,52.074 27.503,52.364 26.860,51.971 C26.216,51.579 27.305,51.063 27.305,51.063 C27.305,51.063 26.979,50.412 26.718,49.629 C26.155,50.107 25.627,50.662 25.146,51.288 C26.702,53.445 28.835,54.870 31.216,55.129 ZM24.553,50.386 C25.123,49.686 25.749,49.071 26.417,48.553 C26.276,48.021 26.096,47.367 25.926,46.710 L24.198,49.752 C24.311,49.969 24.430,50.180 24.553,50.386 ZM31.462,30.215 C26.490,30.586 22.530,36.036 22.530,42.684 C22.530,44.893 22.969,46.969 23.735,48.770 L25.618,45.454 C25.470,44.795 25.369,44.231 25.382,43.919 C25.382,43.905 25.377,43.894 25.378,43.879 C25.380,43.861 25.390,43.835 25.395,43.814 C25.398,43.798 25.399,43.777 25.402,43.764 C25.403,43.759 25.410,43.754 25.412,43.750 C25.692,42.979 27.612,40.733 27.980,40.387 C28.370,40.019 29.365,38.105 29.576,37.677 L30.991,35.495 C30.991,35.495 30.617,34.803 30.617,33.219 C30.617,32.294 30.967,31.447 31.589,31.166 C31.556,30.920 31.510,30.572 31.462,30.215 ZM31.350,33.505 C31.347,33.558 31.342,33.610 31.342,33.665 C31.342,34.492 31.694,35.162 32.125,35.162 C32.558,35.162 32.908,34.492 32.908,33.665 C32.908,33.610 32.902,33.559 32.899,33.505 C32.676,33.602 32.411,33.660 32.125,33.660 C31.839,33.660 31.573,33.602 31.350,33.505 ZM32.500,30.211 L32.424,31.127 C32.833,31.245 33.121,31.530 33.305,31.919 L34.106,30.508 C33.585,30.352 33.049,30.249 32.500,30.211 ZM34.952,30.817 L33.572,33.247 C33.572,33.266 33.575,33.284 33.575,33.302 C33.572,34.448 33.237,35.540 33.237,35.540 C33.237,35.540 34.821,36.095 35.518,36.798 C35.890,37.173 36.243,37.523 36.543,37.821 C36.905,37.694 37.271,37.644 37.633,37.701 C38.280,37.803 38.840,38.208 39.298,38.833 C39.825,38.761 40.383,39.233 40.582,39.949 C40.736,40.503 40.629,41.043 40.346,41.357 C40.670,42.835 40.722,44.636 40.424,46.542 C40.209,47.918 39.836,49.184 39.362,50.276 C39.392,50.312 39.421,50.349 39.451,50.386 C40.716,48.262 41.474,45.589 41.474,42.684 C41.474,37.156 38.734,32.457 34.952,30.817 ZM51.356,40.090 C51.394,40.090 51.439,40.091 51.437,40.092 L51.447,40.092 L51.447,40.088 C51.446,40.089 51.396,40.089 51.356,40.090 ZM35.211,51.807 C34.959,51.549 34.870,51.314 34.828,51.088 C34.790,50.863 34.841,50.651 34.904,50.442 C34.964,50.232 35.065,50.028 35.187,49.828 C35.322,49.628 35.471,49.432 35.714,49.251 C35.782,49.199 35.880,49.214 35.931,49.281 C35.932,49.282 35.933,49.284 35.934,49.286 C36.109,49.532 36.192,49.764 36.259,49.995 C36.314,50.222 36.347,50.447 36.341,50.666 C36.336,50.883 36.321,51.101 36.215,51.305 C36.107,51.508 35.950,51.703 35.630,51.872 C35.488,51.947 35.319,51.917 35.211,51.807 ZM52.905,20.589 C52.086,20.230 51.404,19.300 51.127,18.413 C52.071,18.509 54.075,18.644 55.224,17.409 C55.181,17.538 55.127,17.678 55.047,17.845 C54.582,18.811 54.048,20.080 52.905,20.589 ZM52.000,17.531 C51.802,17.246 51.499,16.814 51.333,16.644 C51.049,16.353 50.712,16.046 50.350,15.741 C50.370,14.817 50.287,14.029 50.165,13.470 C49.930,12.396 49.847,11.864 50.409,12.071 C51.797,12.793 53.793,14.222 54.739,15.578 C55.306,16.478 54.491,17.258 53.325,17.475 C52.799,17.573 52.352,17.562 52.000,17.531 ZM50.570,19.443 C50.849,20.066 51.567,20.723 52.100,21.047 C52.590,21.391 53.132,21.707 53.642,22.004 C52.934,23.925 50.180,27.130 49.829,26.936 C49.626,26.823 49.337,23.002 48.817,22.090 C49.307,21.225 50.031,19.532 50.327,18.826 C50.383,19.004 50.464,19.207 50.570,19.443 ZM48.888,19.177 C48.624,19.867 48.235,20.518 47.749,21.116 C47.741,21.126 47.733,21.137 47.725,21.147 C47.465,20.836 47.087,20.475 46.661,20.352 C46.541,19.855 46.298,19.255 45.918,18.876 C46.914,17.694 47.115,16.439 47.115,15.430 C47.115,14.253 46.525,13.520 46.729,12.957 C47.002,12.465 47.924,11.379 49.155,11.586 C49.150,11.589 49.147,11.591 49.141,11.594 C48.636,11.907 49.267,12.980 49.392,13.658 C49.521,14.355 49.628,15.135 49.589,16.710 C49.464,17.413 49.292,18.116 48.888,19.177 ZM40.874,26.577 C40.774,26.571 40.699,26.485 40.704,26.386 C40.709,26.315 40.757,26.255 40.819,26.230 C41.484,25.968 42.215,25.914 42.934,25.987 C43.652,26.064 44.389,26.292 45.027,26.765 C45.176,26.873 45.357,27.038 45.456,27.141 L45.544,27.230 L45.612,27.291 C45.652,27.331 45.713,27.375 45.764,27.417 C45.981,27.571 46.205,27.717 46.465,27.803 C46.973,28.001 47.596,28.037 48.231,27.980 L48.256,27.978 C48.355,27.969 48.443,28.042 48.451,28.140 C48.457,28.204 48.428,28.263 48.381,28.300 C47.781,28.749 47.002,28.929 46.210,28.796 C45.821,28.718 45.431,28.571 45.103,28.339 C45.022,28.278 44.944,28.227 44.861,28.155 L44.739,28.051 L44.648,27.965 C44.510,27.832 44.449,27.765 44.331,27.672 C43.898,27.333 43.345,27.089 42.753,26.911 C42.159,26.736 41.532,26.624 40.874,26.577 ZM46.013,21.559 C46.053,21.550 46.094,21.539 46.133,21.532 C46.663,21.436 46.969,21.610 47.276,21.857 C47.384,21.966 47.489,22.077 47.579,22.194 C48.136,22.920 48.352,23.802 48.130,24.783 C47.790,26.289 47.246,26.867 47.134,26.826 C46.882,26.735 46.611,25.193 45.717,24.959 C44.152,24.549 43.540,24.785 42.373,25.064 C41.240,25.336 39.882,25.602 39.732,26.146 C39.583,26.692 40.661,27.940 42.029,28.570 C42.342,28.714 42.991,28.700 43.463,28.637 C43.761,28.597 43.860,28.502 43.921,28.583 C44.017,28.711 43.282,29.471 41.978,29.475 C41.704,29.475 40.878,29.438 40.265,28.942 C40.234,28.917 40.201,28.891 40.169,28.865 C39.919,28.658 39.220,28.011 39.067,27.091 C38.862,25.857 38.638,25.823 40.330,24.685 C40.359,24.677 40.400,24.658 40.467,24.615 C41.210,24.129 42.731,23.405 43.827,23.350 C45.077,23.287 45.679,23.925 46.438,23.590 C47.072,23.309 46.604,22.525 46.108,22.238 C45.793,22.055 45.551,21.682 46.013,21.559 ZM45.276,17.183 C45.228,17.267 45.179,17.349 45.128,17.429 C44.629,18.188 42.572,17.751 42.410,17.441 C42.249,17.130 43.248,16.523 43.054,14.882 C42.884,13.440 43.853,13.518 43.853,13.518 C43.853,13.518 43.845,13.512 43.834,13.504 C44.886,13.710 45.831,14.490 45.678,16.080 C45.645,16.433 45.480,16.820 45.276,17.183 ZM40.872,17.509 L40.871,17.509 C40.453,17.528 39.821,16.710 39.459,15.704 C39.122,14.761 39.220,13.939 39.615,13.561 C39.810,13.386 40.047,13.251 40.315,13.182 C39.952,13.044 39.683,12.683 39.662,12.245 C39.636,11.671 40.051,11.187 40.586,11.162 C41.122,11.139 41.577,11.585 41.603,12.158 C41.623,12.596 41.387,12.980 41.037,13.149 C41.312,13.195 41.561,13.309 41.773,13.467 C42.197,13.810 42.368,14.617 42.116,15.585 C41.847,16.619 41.291,17.490 40.872,17.509 ZM37.912,10.343 C37.858,10.377 37.164,10.810 36.675,10.461 C35.337,9.506 34.556,9.674 34.327,9.330 C34.035,8.891 35.309,7.834 35.273,5.348 C35.250,3.740 35.853,3.621 36.057,3.627 C37.877,3.792 39.710,5.023 39.326,7.737 C39.221,8.478 38.575,9.479 37.912,10.343 ZM33.668,7.031 C33.332,8.583 33.042,9.279 32.002,9.279 C30.962,9.279 30.672,8.583 30.336,7.031 C30.002,5.486 29.598,4.099 30.626,3.355 C30.875,3.198 31.157,3.083 31.458,3.019 C30.920,2.788 30.539,2.226 30.539,1.567 C30.539,0.702 31.195,0.001 32.002,0.001 C32.809,0.001 33.465,0.702 33.465,1.567 C33.465,2.226 33.083,2.788 32.546,3.019 C32.847,3.083 33.128,3.198 33.378,3.355 C34.406,4.099 34.002,5.486 33.668,7.031 ZM27.329,10.461 C26.840,10.810 26.146,10.377 26.092,10.343 C25.429,9.479 24.783,8.478 24.678,7.737 C24.294,5.023 26.127,3.792 27.947,3.627 C28.151,3.621 28.754,3.740 28.731,5.348 C28.695,7.834 29.969,8.891 29.676,9.330 C29.447,9.674 28.667,9.506 27.329,10.461 ZM28.020,16.623 C27.917,17.023 27.658,17.445 27.376,17.814 C26.807,18.519 24.803,17.902 24.671,17.579 C24.538,17.255 25.587,16.739 25.542,15.087 C25.502,13.636 26.462,13.800 26.462,13.800 C26.462,13.800 26.454,13.793 26.446,13.786 C27.474,14.087 28.342,14.948 28.048,16.515 C28.041,16.551 28.030,16.587 28.020,16.623 ZM34.072,21.250 C34.051,21.212 34.032,21.172 34.011,21.134 C32.956,19.189 32.652,16.679 32.566,14.479 C32.529,13.526 32.530,12.633 32.528,11.872 C32.165,11.865 32.002,11.913 32.002,11.913 C32.002,11.913 31.839,11.865 31.476,11.872 C31.474,12.633 31.475,13.526 31.438,14.479 C31.352,16.679 31.048,19.189 29.993,21.134 C29.972,21.172 29.954,21.212 29.932,21.250 C29.848,21.189 29.760,21.125 29.666,21.055 C29.131,20.657 28.453,19.960 28.084,19.569 C28.133,19.513 28.183,19.455 28.230,19.397 C29.340,18.015 29.896,16.027 29.971,14.304 C30.006,13.494 29.948,12.745 29.783,12.144 C29.776,12.145 29.767,12.148 29.760,12.150 C29.246,12.285 28.916,12.436 28.992,12.567 C29.120,12.792 29.194,13.269 29.201,13.652 C29.168,13.644 29.124,13.636 29.092,13.628 C28.252,13.419 27.768,13.123 27.768,12.793 L27.768,11.698 C27.768,11.074 29.737,10.568 32.092,10.553 C32.127,10.553 32.212,10.551 32.247,10.551 C34.650,10.551 36.661,11.064 36.661,11.698 L36.661,11.924 L36.661,12.793 C36.661,13.136 35.935,13.442 35.031,13.652 C35.039,13.269 34.921,12.792 35.050,12.567 C35.125,12.435 34.768,12.280 34.241,12.144 C34.077,12.745 34.008,13.494 34.043,14.304 C34.118,16.027 34.669,18.015 35.779,19.397 C35.826,19.455 35.873,19.513 35.922,19.569 C35.554,19.960 34.873,20.657 34.338,21.055 C34.244,21.125 34.156,21.189 34.072,21.250 ZM38.462,15.087 C38.417,16.739 39.466,17.255 39.334,17.579 C39.202,17.902 37.197,18.519 36.628,17.814 C36.345,17.445 36.086,17.023 35.984,16.623 C35.975,16.587 35.963,16.551 35.956,16.515 C35.662,14.948 36.530,14.087 37.558,13.786 C37.550,13.793 37.542,13.800 37.542,13.800 C37.542,13.800 38.502,13.636 38.462,15.087 ZM24.545,15.704 C24.183,16.710 23.550,17.528 23.132,17.509 C22.713,17.490 22.156,16.619 21.888,15.585 C21.636,14.617 21.808,13.810 22.231,13.467 C22.443,13.309 22.692,13.195 22.967,13.149 C22.617,12.980 22.381,12.596 22.401,12.158 C22.427,11.585 22.882,11.139 23.418,11.162 C23.953,11.187 24.368,11.671 24.342,12.245 C24.322,12.683 24.053,13.044 23.689,13.182 C23.957,13.251 24.194,13.386 24.389,13.561 C24.784,13.939 24.883,14.761 24.545,15.704 ZM21.594,17.441 C21.432,17.751 19.375,18.188 18.876,17.429 C18.825,17.349 18.775,17.267 18.728,17.183 C18.524,16.820 18.360,16.433 18.326,16.080 C18.173,14.490 19.117,13.710 20.170,13.504 C20.159,13.512 20.151,13.518 20.151,13.518 C20.151,13.518 21.120,13.440 20.950,14.882 C20.755,16.523 21.755,17.130 21.594,17.441 ZM20.177,23.350 C21.273,23.405 22.794,24.129 23.537,24.615 C23.604,24.658 23.644,24.677 23.674,24.685 C25.366,25.823 25.142,25.857 24.936,27.091 C24.784,28.011 24.085,28.658 23.835,28.865 C23.803,28.891 23.770,28.917 23.739,28.942 C23.126,29.438 22.300,29.475 22.026,29.475 C20.722,29.471 19.987,28.711 20.083,28.583 C20.144,28.502 20.242,28.597 20.541,28.637 C21.013,28.700 21.662,28.714 21.975,28.570 C23.343,27.940 24.421,26.692 24.272,26.146 C24.122,25.602 22.764,25.336 21.631,25.064 C20.464,24.785 19.851,24.549 18.287,24.959 C17.393,25.193 17.122,26.735 16.870,26.826 C16.758,26.867 16.214,26.289 15.874,24.783 C15.651,23.802 15.869,22.920 16.425,22.194 C16.515,22.077 16.620,21.966 16.727,21.858 C17.035,21.610 17.341,21.436 17.871,21.532 C17.910,21.539 17.950,21.550 17.991,21.559 C18.453,21.682 18.211,22.055 17.896,22.238 C17.400,22.525 16.932,23.309 17.565,23.590 C18.325,23.925 18.926,23.287 20.177,23.350 ZM15.773,27.980 C16.408,28.037 17.031,28.001 17.538,27.803 C17.798,27.718 18.023,27.571 18.240,27.417 C18.291,27.375 18.351,27.331 18.392,27.291 L18.460,27.230 L18.548,27.141 C18.647,27.038 18.828,26.873 18.977,26.765 C19.615,26.292 20.352,26.064 21.070,25.987 C21.789,25.914 22.520,25.969 23.185,26.230 C23.278,26.266 23.324,26.371 23.287,26.464 C23.261,26.530 23.197,26.572 23.130,26.577 C22.472,26.624 21.845,26.736 21.250,26.911 C20.659,27.089 20.106,27.333 19.673,27.672 C19.555,27.765 19.494,27.832 19.356,27.966 L19.264,28.051 L19.143,28.155 C19.060,28.227 18.982,28.278 18.900,28.339 C18.572,28.571 18.183,28.718 17.794,28.796 C17.001,28.929 16.223,28.749 15.623,28.300 C15.544,28.240 15.528,28.128 15.588,28.048 C15.627,27.997 15.688,27.973 15.747,27.978 L15.773,27.980 ZM17.342,20.352 C16.917,20.475 16.539,20.836 16.279,21.147 C16.271,21.137 16.263,21.126 16.255,21.116 C15.768,20.519 15.380,19.867 15.116,19.177 C14.712,18.116 14.540,17.413 14.415,16.710 C14.375,15.135 14.483,14.355 14.611,13.658 C14.737,12.980 15.368,11.907 14.862,11.594 C14.858,11.591 14.854,11.589 14.849,11.586 C16.080,11.379 17.001,12.465 17.275,12.957 C17.479,13.520 16.889,14.253 16.889,15.430 C16.889,16.439 17.090,17.694 18.086,18.876 C17.707,19.255 17.463,19.855 17.342,20.352 ZM13.654,15.741 C13.292,16.046 12.955,16.353 12.671,16.644 C12.505,16.814 12.202,17.246 12.004,17.531 C11.652,17.562 11.205,17.573 10.679,17.475 C9.513,17.258 8.698,16.478 9.265,15.578 C10.211,14.222 12.207,12.793 13.595,12.071 C14.157,11.864 14.074,12.396 13.839,13.470 C13.716,14.029 13.634,14.817 13.654,15.741 ZM13.434,19.443 C13.540,19.207 13.621,19.004 13.677,18.826 C13.973,19.532 14.697,21.225 15.187,22.090 C14.667,23.002 14.378,26.823 14.175,26.936 C13.824,27.130 11.070,23.925 10.362,22.004 C10.872,21.707 11.413,21.391 11.904,21.047 C12.438,20.723 13.155,20.066 13.434,19.443 ZM8.780,17.409 C9.929,18.644 11.933,18.509 12.877,18.413 C12.600,19.300 11.918,20.230 11.098,20.589 C9.955,20.080 9.421,18.811 8.957,17.845 C8.876,17.678 8.822,17.538 8.780,17.409 ZM27.924,63.267 C27.561,63.365 27.204,63.433 26.852,63.459 C26.155,63.515 25.438,63.464 24.802,63.349 C24.211,63.245 23.699,63.183 23.194,63.198 C22.703,63.209 22.200,63.313 21.709,63.644 L21.630,63.698 C21.515,63.775 21.359,63.746 21.281,63.631 C21.249,63.583 21.235,63.528 21.239,63.474 C21.298,62.591 22.024,61.921 22.795,61.623 C23.570,61.321 24.403,61.317 25.104,61.437 C25.763,61.548 26.350,61.679 26.966,61.829 L27.865,62.060 C28.153,62.142 28.464,62.205 28.630,62.234 L28.858,62.275 C28.970,62.295 29.044,62.401 29.024,62.514 C29.021,62.529 29.016,62.547 29.009,62.562 C28.888,62.828 28.647,62.950 28.476,63.048 C28.289,63.145 28.105,63.206 27.924,63.267 ZM19.985,65.215 C20.333,65.001 20.678,64.904 20.989,64.829 C21.612,64.686 22.155,64.658 22.677,64.631 L24.178,64.582 C24.663,64.564 25.141,64.541 25.610,64.499 C26.078,64.453 26.589,64.401 27.060,64.340 C27.537,64.279 28.004,64.215 28.428,64.092 C28.854,63.959 29.219,63.816 29.539,63.441 C29.631,63.334 29.793,63.321 29.900,63.413 C29.977,63.478 30.006,63.578 29.983,63.669 L29.981,63.677 L29.934,63.866 C29.910,63.935 29.874,64.011 29.841,64.084 C29.772,64.223 29.695,64.355 29.598,64.473 C29.409,64.712 29.187,64.923 28.947,65.091 C28.468,65.428 27.962,65.668 27.462,65.863 C26.953,66.058 26.475,66.220 25.948,66.360 C25.421,66.498 24.893,66.597 24.370,66.672 C23.341,66.824 22.271,66.871 21.523,67.045 C21.343,67.088 21.203,67.153 21.109,67.188 C21.009,67.223 20.964,67.229 20.864,67.258 C20.769,67.287 20.637,67.380 20.489,67.541 C20.333,67.701 20.188,67.917 19.969,68.168 L19.956,68.182 C19.837,68.320 19.628,68.334 19.491,68.215 C19.483,68.208 19.476,68.201 19.469,68.194 C19.225,67.941 19.087,67.648 19.009,67.309 C18.940,66.972 18.961,66.573 19.136,66.173 C19.303,65.772 19.644,65.427 19.985,65.215 ZM42.374,63.698 L42.295,63.644 C41.804,63.313 41.301,63.209 40.810,63.198 C40.305,63.183 39.792,63.244 39.202,63.349 C38.566,63.463 37.848,63.515 37.152,63.459 C36.800,63.433 36.443,63.365 36.080,63.267 C35.899,63.206 35.714,63.145 35.528,63.048 C35.356,62.950 35.116,62.827 34.995,62.562 C34.948,62.459 34.994,62.337 35.097,62.290 C35.112,62.283 35.129,62.277 35.144,62.275 L35.374,62.234 C35.540,62.205 35.851,62.142 36.139,62.060 L37.038,61.829 C37.654,61.679 38.240,61.548 38.900,61.436 C39.601,61.316 40.434,61.321 41.210,61.623 C41.980,61.921 42.706,62.591 42.765,63.474 C42.775,63.612 42.670,63.731 42.532,63.741 C42.473,63.744 42.419,63.728 42.374,63.698 ZM39.634,66.673 C39.111,66.597 38.584,66.498 38.056,66.360 C37.529,66.220 37.051,66.058 36.542,65.863 C36.041,65.668 35.536,65.428 35.057,65.091 C34.817,64.923 34.595,64.712 34.406,64.473 C34.309,64.355 34.232,64.224 34.163,64.084 C34.130,64.011 34.094,63.935 34.070,63.866 L34.023,63.676 L34.021,63.670 C33.987,63.533 34.070,63.393 34.207,63.359 C34.305,63.335 34.404,63.370 34.464,63.441 C34.784,63.816 35.150,63.959 35.576,64.092 C36.000,64.215 36.467,64.279 36.944,64.340 C37.415,64.401 37.927,64.453 38.394,64.499 C38.863,64.541 39.341,64.565 39.826,64.582 L41.327,64.631 C41.849,64.659 42.392,64.686 43.015,64.829 C43.326,64.904 43.671,65.002 44.019,65.215 C44.360,65.427 44.701,65.772 44.868,66.173 C45.043,66.573 45.064,66.972 44.995,67.309 C44.917,67.648 44.779,67.941 44.535,68.195 C44.409,68.326 44.200,68.330 44.068,68.204 C44.061,68.197 44.055,68.190 44.048,68.183 L44.035,68.168 C43.816,67.917 43.670,67.701 43.515,67.541 C43.367,67.380 43.235,67.287 43.140,67.258 C43.040,67.229 42.995,67.223 42.894,67.188 C42.801,67.153 42.661,67.088 42.481,67.045 C41.733,66.871 40.663,66.824 39.634,66.673 ZM124.666,44.191 C124.666,46.307 123.358,47.735 121.741,48.092 C123.563,48.372 125.000,50.106 125.000,52.247 C125.000,54.720 123.332,56.862 119.971,56.862 L109.966,56.862 L109.966,39.856 L119.663,39.856 C123.050,39.856 124.666,42.049 124.666,44.191 ZM114.378,53.165 L118.817,53.165 C119.869,53.165 120.510,52.553 120.510,51.635 C120.510,50.794 119.894,50.106 118.817,50.106 L114.378,50.106 L114.378,53.165 ZM118.663,43.553 L114.378,43.553 L114.378,46.383 L118.663,46.383 C119.561,46.383 120.176,45.797 120.176,44.956 C120.176,44.140 119.561,43.553 118.663,43.553 ZM132.083,45.567 L136.239,45.567 C140.088,45.567 142.191,48.142 142.191,51.202 C142.191,54.287 140.088,56.862 136.239,56.862 L127.671,56.862 L127.671,39.856 L132.083,39.856 L132.083,45.567 ZM132.083,53.038 L135.649,53.038 C136.830,53.038 137.702,52.375 137.702,51.202 C137.702,50.055 136.830,49.392 135.649,49.392 L132.083,49.392 L132.083,53.038 ZM147.861,56.862 L143.449,56.862 L143.449,39.856 L147.861,39.856 L147.861,56.862 ZM167.132,56.862 L162.720,56.862 L162.720,43.681 L155.613,43.681 L155.613,56.862 L151.201,56.862 L151.201,39.856 L167.132,39.856 L167.132,56.862 ZM173.626,39.856 L177.321,47.811 L181.041,39.856 L186.018,39.856 L179.065,53.522 C177.988,55.613 176.269,57.168 173.113,57.168 C171.471,57.168 169.829,56.709 168.778,55.868 L170.522,52.451 C171.112,52.885 171.882,53.293 172.728,53.293 C173.832,53.293 174.319,52.885 174.832,52.018 L168.649,39.856 L173.626,39.856 ZM195.411,39.576 C199.541,39.576 201.748,41.896 202.876,44.140 L199.079,45.924 C198.515,44.573 197.053,43.451 195.411,43.451 C192.614,43.451 190.639,45.593 190.639,48.372 C190.639,51.151 192.614,53.293 195.411,53.293 C197.053,53.293 198.515,52.171 199.079,50.820 L202.876,52.604 C201.773,54.797 199.541,57.168 195.411,57.168 C190.151,57.168 186.149,53.599 186.149,48.372 C186.149,43.120 190.151,39.576 195.411,39.576 ZM226.485,46.205 L233.591,46.205 L233.591,39.856 L238.004,39.856 L238.004,56.862 L233.591,56.862 L233.591,50.029 L226.485,50.029 L226.485,56.862 L222.072,56.862 L222.072,39.856 L226.485,39.856 L226.485,46.205 ZM245.755,49.876 L252.682,39.856 L257.248,39.856 L257.248,56.862 L252.810,56.862 L252.810,46.358 L245.601,56.862 L241.342,56.862 L241.342,39.856 L245.755,39.856 L245.755,49.876 ZM284.782,39.576 C290.016,39.576 293.915,43.196 293.915,48.372 C293.915,53.548 290.016,57.168 284.782,57.168 C279.549,57.168 275.623,53.548 275.623,48.372 C275.623,43.196 279.549,39.576 284.782,39.576 ZM284.782,53.293 C287.604,53.293 289.426,51.125 289.426,48.372 C289.426,45.593 287.604,43.451 284.782,43.451 C281.935,43.451 280.113,45.593 280.113,48.372 C280.113,51.125 281.935,53.293 284.782,53.293 Z" class="cls-1"/>
</svg>
